# xmcd CD database file
#
# Track frame offsets:
#	150
#	33400
#	60369
#	89153
#	106989
#	129874
#	149679
#	156657
#
# Disc length: 2406 seconds
#
# Revision: 0
# Processed by: cddbd v1.5.2PL0 Copyright (c) Steve Scherf et al.
# Submitted via: CDex 1.77
#
DISCID=70096408
DTITLE=Arbouretum - Song of the Rose
DYEAR=2017
DGENRE=Blues
TTITLE0=Call Upon the Fire
TTITLE1=Comanche Moon
TTITLE2=Song of the Rose
TTITLE3=Absolution song
TTITLE4=Dirt Trails
TTITLE5=Fall From an Eyrie
TTITLE6=Mind Awake, Body Asleep
TTITLE7=Woke Up on the Move
EXTD=YEAR: 2017
EXTT0=
EXTT1=
EXTT2=
EXTT3=
EXTT4=
EXTT5=
EXTT6=
EXTT7=
PLAYORDER=
